<svg width="62" height="58" viewBox="0 0 62 58" fill="none" xmlns="http://www.w3.org/2000/svg">
<path fill-rule="evenodd" clip-rule="evenodd" d="M8.27699 51.7857C7.72819 51.7857 7.20187 51.5675 6.81381 51.179C6.42575 50.7905 6.20774 50.2637 6.20774 49.7143V8.28571C6.20774 7.73634 6.42575 7.20946 6.81381 6.82099C7.20187 6.43253 7.72819 6.21429 8.27699 6.21429H46.5581C47.3813 6.21429 48.1707 5.88693 48.7528 5.30422C49.3349 4.72152 49.6619 3.93121 49.6619 3.10714C49.6619 2.28308 49.3349 1.49276 48.7528 0.910061C48.1707 0.327359 47.3813 1.22795e-08 46.5581 0H8.27699C6.0818 0 3.97651 0.872957 2.42427 2.42683C0.872038 3.9807 0 6.08821 0 8.28571V49.7143C0 51.9118 0.872038 54.0193 2.42427 55.5732C3.97651 57.127 6.0818 58 8.27699 58H49.6619C51.8571 58 53.9624 57.127 55.5147 55.5732C57.0669 54.0193 57.9389 51.9118 57.9389 49.7143V36.25C57.9389 35.4259 57.6119 34.6356 57.0298 34.0529C56.4477 33.4702 55.6583 33.1429 54.8351 33.1429C54.0119 33.1429 53.2224 33.4702 52.6403 34.0529C52.0582 34.6356 51.7312 35.4259 51.7312 36.25V49.7143C51.7312 50.2637 51.5132 50.7905 51.1251 51.179C50.7371 51.5675 50.2107 51.7857 49.6619 51.7857H8.27699ZM61.167 15.2457C61.7152 14.6567 62.0137 13.8777 61.9995 13.0727C61.9853 12.2677 61.6596 11.4997 61.0909 10.9304C60.5222 10.3611 59.755 10.035 58.9509 10.0208C58.1468 10.0066 57.3685 10.3054 56.7802 10.8543L33.7784 33.8761L26.027 25.8556C25.7442 25.5598 25.4058 25.3228 25.0312 25.1584C24.6566 24.9939 24.2532 24.9052 23.8442 24.8973C23.4353 24.8894 23.0288 24.9626 22.6482 25.1125C22.2676 25.2624 21.9203 25.4861 21.6263 25.7709C21.3323 26.0556 21.0975 26.3956 20.9353 26.7715C20.773 27.1474 20.6866 27.5517 20.681 27.9611C20.6754 28.3705 20.7506 28.777 20.9024 29.1572C21.0543 29.5374 21.2797 29.8839 21.5657 30.1766L31.5105 40.4674C31.7966 40.7645 32.139 41.0016 32.5177 41.1647C32.8964 41.3279 33.3037 41.4139 33.7159 41.4178C34.1281 41.4216 34.537 41.3432 34.9187 41.1872C35.3003 41.0311 35.6471 40.8005 35.9387 40.5089L61.167 15.2457Z" fill="#383838"/>
</svg>
