<svg width="61" height="57" viewBox="0 0 61 57" fill="none" xmlns="http://www.w3.org/2000/svg">
<path d="M59.8206 0.465974C59.3772 0.183858 58.8579 0.0232546 58.3218 0.00234016C57.7856 -0.0185743 57.2538 0.101036 56.7867 0.347632L1.44544 29.7357C0.499001 30.2478 -0.0600884 31.2053 0.00514656 32.2183C0.0703816 33.2342 0.748611 34.1287 1.75349 34.5217L20.036 41.689V54.3248C20.036 55.3024 20.6081 56.1996 21.5267 56.6694C21.9557 56.8887 22.4208 57 22.7905 57C23.3291 57 23.8684 56.8574 24.3397 56.5756L37.6014 48.6201L49.3556 53.2291C49.7067 53.3667 50.0836 53.4377 50.4644 53.4378C50.9507 53.4378 51.4352 53.3231 51.8692 53.0934C52.2493 52.8939 52.5754 52.6158 52.8224 52.2804C53.0695 51.945 53.2309 51.5612 53.2944 51.1585L60.927 3.06471C61.1921 2.05285 60.7151 1.04343 59.8206 0.465974ZM44.0426 13.2703L21.7291 36.5267L9.3297 31.6951L44.0426 13.2703ZM25.6528 49.4297V43.9345L31.1924 46.1065L25.6528 49.4297ZM48.2763 46.9693L27.2151 38.7099L54.0008 10.9335L48.2763 46.9693Z" fill="#383838"/>
</svg>
